<?xml version="1.0" encoding="utf-8"?>
<svg xmlns="http://www.w3.org/2000/svg" viewBox="33.277 122.271 572.815 539.952" width="572.815px" height="539.952px">
  <path fill="#1F7078" d="M 33.277 239.188 C 110.512 220.982 185.797 198.045 255.629 161.913 C 268.727 155.136 281.936 148.158 294.121 140.014 C 300.954 135.445 312.417 125.682 318.872 122.654 C 319.152 122.522 319.436 122.399 319.718 122.271 C 380.043 169.871 464.788 201.572 540.105 222.828 C 561.935 228.989 584.351 233.48 606.092 239.798 C 602.292 367.923 553.587 496.824 451.557 586.199 C 447.904 589.404 444.186 592.542 440.404 595.615 C 436.622 598.688 432.778 601.694 428.872 604.631 C 424.968 607.568 421.004 610.436 416.981 613.233 C 412.958 616.03 408.88 618.756 404.745 621.411 C 400.611 624.064 396.424 626.644 392.184 629.15 C 387.944 631.655 383.654 634.086 379.314 636.44 C 374.975 638.795 370.589 641.072 366.156 643.272 C 361.723 645.472 357.246 647.593 352.726 649.635 C 342.823 654.214 332.779 658.812 322.327 662.223 C 315.711 661.358 307.258 656.962 301.144 654.343 C 296.234 652.263 291.369 650.096 286.55 647.843 C 281.729 645.59 276.957 643.252 272.234 640.829 C 267.51 638.406 262.838 635.9 258.219 633.31 C 253.599 630.721 249.034 628.051 244.525 625.299 C 240.015 622.548 235.564 619.717 231.172 616.806 C 226.779 613.896 222.448 610.909 218.18 607.845 C 213.91 604.781 209.706 601.641 205.567 598.427 C 201.427 595.214 197.356 591.927 193.353 588.569 C 116.146 524.697 66.063 431.845 45.731 338.499 C 38.591 305.719 35.367 272.527 33.277 239.188 Z" style="" transform="matrix(1, 0, 0, 1, 0, -3.552713678800501e-15)"/>
  <path fill="#FEFEFE" d="M 33.277 239.188 C 110.512 220.982 185.797 198.045 255.629 161.913 C 268.727 155.136 281.936 148.158 294.121 140.014 C 300.954 135.445 312.417 125.682 318.872 122.654 C 319.152 122.522 319.436 122.399 319.718 122.271 C 319.906 130.623 320.997 142.267 320.56 150.105 L 319.909 150.369 C 312.885 153.296 306.151 157.274 299.422 160.762 C 287.497 166.946 275.374 173.096 263.05 178.565 C 196.743 207.992 128.755 231.904 57.344 248.231 C 58.914 287.051 63.717 326.3 73.621 364.096 C 93.884 441.433 137.872 518.833 201.044 573.296 C 229.117 597.5 263.365 618.23 298.774 631.757 C 306.399 634.671 314.262 637.739 322.433 638.982 C 321.711 646.718 322.129 654.47 322.327 662.223 C 315.711 661.358 307.258 656.962 301.144 654.343 C 296.234 652.263 291.369 650.096 286.55 647.843 C 281.729 645.59 276.957 643.252 272.234 640.829 C 267.51 638.406 262.838 635.9 258.219 633.31 C 253.599 630.721 249.034 628.051 244.525 625.299 C 240.015 622.548 235.564 619.717 231.172 616.806 C 226.779 613.896 222.448 610.909 218.18 607.845 C 213.91 604.781 209.706 601.641 205.567 598.427 C 201.427 595.214 197.356 591.927 193.353 588.569 C 116.146 524.697 66.063 431.845 45.731 338.499 C 38.591 305.719 35.367 272.527 33.277 239.188 Z" style="" transform="matrix(1, 0, 0, 1, 0, -3.552713678800501e-15)"/>
  <path fill="#DEDEDF" d="M 319.718 122.271 C 380.043 169.871 464.788 201.572 540.105 222.828 C 561.935 228.989 584.351 233.48 606.092 239.798 C 602.292 367.923 553.587 496.824 451.557 586.199 C 447.904 589.404 444.186 592.542 440.404 595.615 C 436.622 598.688 432.778 601.694 428.872 604.631 C 424.968 607.568 421.004 610.436 416.981 613.233 C 412.958 616.03 408.88 618.756 404.745 621.411 C 400.611 624.064 396.424 626.644 392.184 629.15 C 387.944 631.655 383.654 634.086 379.314 636.44 C 374.975 638.795 370.589 641.072 366.156 643.272 C 361.723 645.472 357.246 647.593 352.726 649.635 C 342.823 654.214 332.779 658.812 322.327 662.223 C 322.129 654.47 321.711 646.718 322.433 638.982 C 329.418 638.346 338.642 634.109 345.164 631.487 C 387.507 614.47 425.001 588.772 456.93 558.005 C 542.582 475.474 582.749 359.527 580.465 246.297 C 566.154 243.747 552.133 239.575 538.153 235.797 C 524.661 232.213 511.259 228.361 497.946 224.244 C 484.633 220.126 471.421 215.746 458.311 211.103 C 445.2 206.459 432.202 201.557 419.318 196.396 C 406.434 191.235 393.675 185.821 381.041 180.153 C 361.66 171.641 338.387 161.013 320.56 150.105 C 320.997 142.267 319.906 130.623 319.718 122.271 Z" style="" transform="matrix(1, 0, 0, 1, 0, -3.552713678800501e-15)"/>
  <path fill="#FEFEFE" d="M 322.489 570.946 C 320.927 570.972 319.365 570.975 317.803 570.954 C 316.241 570.933 314.679 570.888 313.119 570.818 C 311.559 570.749 310 570.656 308.443 570.539 C 306.886 570.422 305.332 570.281 303.78 570.116 C 302.228 569.95 300.679 569.761 299.135 569.549 C 297.589 569.337 296.048 569.1 294.511 568.84 C 292.974 568.58 291.442 568.296 289.916 567.989 C 288.39 567.682 286.869 567.351 285.354 566.997 C 283.839 566.643 282.331 566.266 280.829 565.865 C 279.328 565.465 277.834 565.041 276.348 564.595 C 274.862 564.149 273.384 563.68 271.914 563.188 C 270.445 562.696 268.985 562.182 267.533 561.645 C 266.082 561.108 264.641 560.549 263.21 559.968 C 261.779 559.387 260.359 558.784 258.949 558.159 C 257.539 557.534 256.141 556.888 254.755 556.22 C 253.368 555.552 251.994 554.863 250.632 554.153 C 249.27 553.444 247.922 552.713 246.586 551.961 C 245.25 551.209 243.928 550.437 242.62 549.645 C 241.312 548.853 240.018 548.04 238.739 547.208 C 237.46 546.376 236.196 545.525 234.947 544.653 C 233.699 543.783 232.466 542.893 231.249 541.984 C 230.032 541.074 228.832 540.147 227.649 539.201 C 226.464 538.256 225.298 537.292 224.149 536.31 C 222.999 535.329 221.868 534.33 220.754 533.313 C 219.641 532.296 218.546 531.263 217.468 530.212 C 216.392 529.162 215.334 528.096 214.296 527.013 C 213.257 525.93 212.238 524.832 211.239 523.717 C 210.24 522.603 209.261 521.474 208.302 520.329 C 207.343 519.185 206.404 518.027 205.486 516.854 C 204.569 515.681 203.673 514.494 202.797 513.293 C 201.923 512.092 201.069 510.878 200.237 509.652 C 199.405 508.424 198.596 507.185 197.808 505.933 C 197.02 504.681 196.256 503.418 195.513 502.142 C 194.771 500.867 194.052 499.58 193.355 498.282 C 192.659 496.985 191.986 495.677 191.336 494.359 C 190.687 493.04 190.061 491.712 189.459 490.375 C 188.857 489.037 188.278 487.69 187.724 486.335 C 187.17 484.98 186.64 483.617 186.135 482.245 C 185.63 480.874 185.149 479.495 184.693 478.108 C 184.237 476.722 183.806 475.328 183.399 473.928 C 182.993 472.529 182.612 471.123 182.256 469.712 C 181.9 468.301 181.569 466.884 181.264 465.462 C 180.958 464.041 180.678 462.615 180.423 461.185 C 180.169 459.754 179.94 458.321 179.737 456.884 C 179.534 455.447 179.356 454.006 179.204 452.563 C 179.053 451.121 178.927 449.676 178.827 448.229 C 178.726 446.783 178.651 445.336 178.603 443.887 C 178.555 442.437 178.532 440.988 178.536 439.538 C 178.539 438.089 178.568 436.64 178.623 435.191 C 178.678 433.742 178.759 432.295 178.866 430.848 C 178.973 429.402 179.106 427.958 179.264 426.517 C 179.422 425.075 179.606 423.635 179.816 422.199 C 180.026 420.762 180.261 419.329 180.522 417.9 C 180.783 416.47 181.07 415.046 181.383 413.626 C 181.695 412.206 182.032 410.791 182.394 409.381 C 182.757 407.971 183.145 406.566 183.557 405.168 C 183.97 403.77 184.408 402.379 184.871 400.994 C 185.333 399.61 185.82 398.233 186.331 396.863 C 186.843 395.494 187.379 394.132 187.939 392.779 C 188.5 391.425 189.084 390.081 189.693 388.746 C 190.301 387.411 190.933 386.085 191.588 384.77 C 192.244 383.454 192.923 382.149 193.626 380.853 C 194.328 379.559 195.053 378.275 195.802 377.003 C 196.549 375.73 197.32 374.47 198.114 373.221 C 198.907 371.973 199.723 370.736 200.56 369.512 C 201.397 368.289 202.256 367.078 203.137 365.881 C 204.017 364.684 204.919 363.5 205.843 362.33 C 206.765 361.161 207.708 360.006 208.673 358.866 C 209.637 357.726 210.621 356.6 211.625 355.49 C 212.63 354.38 213.655 353.285 214.698 352.206 C 215.742 351.128 216.804 350.066 217.886 349.019 C 218.968 347.974 220.068 346.945 221.186 345.933 C 222.304 344.92 223.44 343.925 224.593 342.948 C 225.747 341.971 226.918 341.012 228.107 340.072 C 229.295 339.13 230.499 338.207 231.72 337.304 C 232.941 336.399 234.178 335.514 235.431 334.649 C 236.684 333.782 237.951 332.935 239.234 332.109 C 240.517 331.282 241.815 330.474 243.126 329.687 C 244.438 328.901 245.763 328.134 247.103 327.388 C 248.442 326.641 249.794 325.916 251.16 325.211 C 252.524 324.506 253.901 323.823 255.291 323.161 C 256.681 322.498 258.082 321.858 259.494 321.238 C 260.907 320.619 262.33 320.021 263.763 319.446 C 265.197 318.871 266.641 318.318 268.094 317.786 C 269.548 317.256 271.01 316.747 272.483 316.261 C 273.954 315.775 275.434 315.312 276.922 314.872 C 278.411 314.431 279.907 314.013 281.41 313.619 C 282.913 313.224 284.423 312.853 285.939 312.505 C 287.455 312.157 288.978 311.832 290.506 311.531 C 292.034 311.23 293.567 310.952 295.105 310.699 C 296.643 310.444 298.185 310.214 299.731 310.008 C 301.278 309.802 302.827 309.619 304.38 309.46 C 305.932 309.301 307.487 309.166 309.045 309.055 C 310.603 308.944 312.162 308.856 313.722 308.793 C 315.282 308.731 316.844 308.692 318.406 308.677 C 319.968 308.662 321.53 308.671 323.092 308.704 C 325.374 308.752 327.653 308.852 329.929 309.002 C 332.207 309.153 334.479 309.355 336.745 309.607 C 339.011 309.861 341.269 310.165 343.52 310.518 C 345.77 310.873 348.01 311.278 350.24 311.733 C 352.468 312.189 354.684 312.694 356.888 313.249 C 359.091 313.803 361.277 314.407 363.449 315.06 C 365.62 315.713 367.773 316.415 369.908 317.165 C 372.043 317.914 374.158 318.712 376.25 319.557 C 378.343 320.402 380.413 321.293 382.46 322.232 C 384.506 323.169 386.527 324.152 388.522 325.181 C 390.518 326.21 392.485 327.283 394.424 328.401 C 396.363 329.518 398.272 330.679 400.15 331.882 C 402.029 333.084 403.876 334.329 405.689 335.615 C 407.503 336.902 409.281 338.228 411.025 339.594 C 412.77 340.96 414.478 342.364 416.149 343.807 C 417.82 345.25 419.452 346.73 421.047 348.247 C 422.64 349.762 424.193 351.313 425.706 352.899 C 427.219 354.486 428.69 356.105 430.118 357.758 C 431.546 359.41 432.93 361.093 434.27 362.808 C 435.611 364.522 436.906 366.265 438.155 368.038 C 439.405 369.81 440.607 371.61 441.763 373.437 C 442.918 375.263 444.025 377.115 445.084 378.992 C 446.142 380.868 447.151 382.768 448.111 384.69 C 449.07 386.612 449.978 388.554 450.837 390.516 C 451.695 392.479 452.501 394.46 453.257 396.459 C 454.011 398.458 454.713 400.473 455.362 402.503 C 456.011 404.534 456.608 406.578 457.151 408.636 C 457.694 410.692 458.182 412.761 458.617 414.84 C 459.052 416.919 459.432 419.007 459.757 421.104 C 460.083 423.2 460.354 425.303 460.571 427.412 C 460.786 429.52 460.947 431.633 461.052 433.748 C 461.159 435.864 461.209 437.981 461.204 440.099 C 461.199 442.217 461.138 444.334 461.024 446.449 C 460.908 448.564 460.737 450.676 460.512 452.784 C 460.287 454.891 460.006 456.993 459.67 459.089 C 459.335 461.183 458.945 463.27 458.5 465.347 C 458.057 467.425 457.558 469.492 457.006 471.547 C 456.454 473.602 455.849 475.643 455.19 477.671 C 454.531 479.699 453.82 481.711 453.056 483.707 C 452.292 485.703 451.476 487.681 450.609 489.64 C 449.742 491.599 448.824 493.538 447.856 495.457 C 446.888 497.374 445.87 499.269 444.802 501.141 C 443.735 503.014 442.62 504.861 441.456 506.683 C 440.292 508.505 439.081 510.301 437.823 512.068 C 436.567 513.836 435.264 515.574 433.915 517.283 C 432.567 518.992 431.175 520.67 429.739 522.317 C 428.303 523.964 426.825 525.577 425.305 527.157 C 423.785 528.737 422.225 530.282 420.624 531.792 C 419.023 533.302 417.384 534.775 415.706 536.212 C 414.029 537.648 412.315 539.045 410.565 540.404 C 408.814 541.763 407.028 543.082 405.209 544.361 C 403.389 545.64 401.537 546.878 399.653 548.074 C 397.769 549.269 395.855 550.421 393.911 551.531 C 391.967 552.641 389.995 553.706 387.995 554.728 C 385.994 555.748 383.969 556.723 381.918 557.653 C 379.867 558.583 377.793 559.467 375.697 560.303 C 373.6 561.14 371.482 561.929 369.344 562.67 C 367.206 563.411 365.049 564.105 362.874 564.75 C 360.7 565.394 358.511 565.989 356.306 566.535 C 354.1 567.081 351.881 567.577 349.65 568.024 C 347.418 568.47 345.177 568.865 342.924 569.211 C 340.673 569.557 338.414 569.851 336.146 570.095 C 333.879 570.339 331.606 570.532 329.328 570.674 C 327.05 570.816 324.771 570.906 322.489 570.946 Z" style="" transform="matrix(1, 0, 0, 1, 0, -3.552713678800501e-15)"/>
  <path fill="#DEDEDF" d="M 323.092 308.704 C 325.374 308.752 327.653 308.852 329.929 309.002 C 332.207 309.153 334.479 309.355 336.745 309.607 C 339.011 309.861 341.269 310.165 343.52 310.518 C 345.77 310.873 348.01 311.278 350.24 311.733 C 352.468 312.189 354.684 312.694 356.888 313.249 C 359.091 313.803 361.277 314.407 363.449 315.06 C 365.62 315.713 367.773 316.415 369.908 317.165 C 372.043 317.914 374.158 318.712 376.25 319.557 C 378.343 320.402 380.413 321.293 382.46 322.232 C 384.506 323.169 386.527 324.152 388.522 325.181 C 390.518 326.21 392.485 327.283 394.424 328.401 C 396.363 329.518 398.272 330.679 400.15 331.882 C 402.029 333.084 403.876 334.329 405.689 335.615 C 407.503 336.902 409.281 338.228 411.025 339.594 C 412.77 340.96 414.478 342.364 416.149 343.807 C 417.82 345.25 419.452 346.73 421.047 348.247 C 422.64 349.762 424.193 351.313 425.706 352.899 C 427.219 354.486 428.69 356.105 430.118 357.758 C 431.546 359.41 432.93 361.093 434.27 362.808 C 435.611 364.522 436.906 366.265 438.155 368.038 C 439.405 369.81 440.607 371.61 441.763 373.437 C 442.918 375.263 444.025 377.115 445.084 378.992 C 446.142 380.868 447.151 382.768 448.111 384.69 C 449.07 386.612 449.978 388.554 450.837 390.516 C 451.695 392.479 452.501 394.46 453.257 396.459 C 454.011 398.458 454.713 400.473 455.362 402.503 C 456.011 404.534 456.608 406.578 457.151 408.636 C 457.694 410.692 458.182 412.761 458.617 414.84 C 459.052 416.919 459.432 419.007 459.757 421.104 C 460.083 423.2 460.354 425.303 460.571 427.412 C 460.786 429.52 460.947 431.633 461.052 433.748 C 461.159 435.864 461.209 437.981 461.204 440.099 C 461.199 442.217 461.138 444.334 461.024 446.449 C 460.908 448.564 460.737 450.676 460.512 452.784 C 460.287 454.891 460.006 456.993 459.67 459.089 C 459.335 461.183 458.945 463.27 458.5 465.347 C 458.057 467.425 457.558 469.492 457.006 471.547 C 456.454 473.602 455.849 475.643 455.19 477.671 C 454.531 479.699 453.82 481.711 453.056 483.707 C 452.292 485.703 451.476 487.681 450.609 489.64 C 449.742 491.599 448.824 493.538 447.856 495.457 C 446.888 497.374 445.87 499.269 444.802 501.141 C 443.735 503.014 442.62 504.861 441.456 506.683 C 440.292 508.505 439.081 510.301 437.823 512.068 C 436.567 513.836 435.264 515.574 433.915 517.283 C 432.567 518.992 431.175 520.67 429.739 522.317 C 428.303 523.964 426.825 525.577 425.305 527.157 C 423.785 528.737 422.225 530.282 420.624 531.792 C 419.023 533.302 417.384 534.775 415.706 536.212 C 414.029 537.648 412.315 539.045 410.565 540.404 C 408.814 541.763 407.028 543.082 405.209 544.361 C 403.389 545.64 401.537 546.878 399.653 548.074 C 397.769 549.269 395.855 550.421 393.911 551.531 C 391.967 552.641 389.995 553.706 387.995 554.728 C 385.994 555.748 383.969 556.723 381.918 557.653 C 379.867 558.583 377.793 559.467 375.697 560.303 C 373.6 561.14 371.482 561.929 369.344 562.67 C 367.206 563.411 365.049 564.105 362.874 564.75 C 360.7 565.394 358.511 565.989 356.306 566.535 C 354.1 567.081 351.881 567.577 349.65 568.024 C 347.418 568.47 345.177 568.865 342.924 569.211 C 340.673 569.557 338.414 569.851 336.146 570.095 C 333.879 570.339 331.606 570.532 329.328 570.674 C 327.05 570.816 324.771 570.906 322.489 570.946 C 322.931 554.556 323.554 538.321 323.549 521.911 C 323.546 511.05 322.29 494.475 324.045 484.397 C 327.535 484.512 331.179 484.447 334.646 484.758 L 338.48 484.33 C 334.612 483.81 330.714 483.362 326.807 483.202 C 325.674 482.27 325.511 482.124 325.269 480.668 C 324.96 478.799 325.337 477.629 326.478 476.11 C 329.871 474.825 334.967 476.489 338.937 475.83 L 339.635 475.708 C 334.584 475.005 329.449 474.891 324.353 474.666 L 324.401 444.841 C 327.575 444.214 331.163 444.405 334.417 444.31 C 331.232 443.703 327.397 444.056 324.122 444.035 L 324.152 436.2 C 329.084 436.294 333.958 436.223 338.886 436.012 C 334.261 435.935 329.5 436.046 324.91 435.508 C 324.729 435.488 324.549 435.462 324.367 435.439 L 324.43 403.129 C 331.711 403.123 339.1 403.019 346.314 402.072 C 346.19 402.051 346.066 402.032 345.942 402.01 C 339.927 400.934 332.322 403.95 326.923 402.35 C 324.465 401.621 323.317 400.602 322.147 398.529 C 322.142 397.205 321.93 396.448 323.07 395.457 C 326.147 392.782 340.656 393.518 345.543 393.034 L 344.835 392.397 C 337.895 392.744 330.95 392.973 324.001 393.084 C 322.386 385.861 323.601 372.052 323.627 364.255 C 323.69 345.693 323.634 327.256 323.092 308.704 Z" style="" transform="matrix(1, 0, 0, 1, 0, -3.552713678800501e-15)"/>
  <path fill="#8E2C3A" d="M 324.045 484.397 C 327.535 484.512 331.179 484.447 334.646 484.758 C 350.134 486.4 365.665 490.467 380.249 495.486 C 371.666 513.485 348.146 545.059 330.778 555.453 C 328.897 556.578 327.4 557.116 325.128 556.718 C 324.831 556.419 324.425 556.186 324.234 555.819 C 323.571 554.539 324.91 492.764 324.115 485.013 L 324.045 484.397 Z" style="" transform="matrix(1, 0, 0, 1, 0, -3.552713678800501e-15)"/>
  <path fill="#8E2C3A" d="M 324.474 323.322 C 349.289 337.054 369.366 359.844 380.451 384.52 C 370.637 387.405 360.657 389.664 350.514 391.297 C 348.818 391.586 346.304 391.659 344.835 392.397 C 337.895 392.744 330.95 392.973 324.001 393.084 C 324.823 384.814 324.397 376.226 324.41 367.914 L 324.474 323.322 Z" style="" transform="matrix(1, 0, 0, 1, 0, -3.552713678800501e-15)"/>
  <path fill="#8E2C3A" d="M 346.314 402.072 C 359.39 401.849 372.436 396.549 385.008 393.658 C 390.193 407.334 392.844 420.562 394.168 435.013 C 379.085 435.143 364.001 435.162 348.917 435.07 C 341.171 435.047 331.982 434.221 324.367 435.439 L 324.43 403.129 C 331.711 403.123 339.1 403.019 346.314 402.072 Z" style="" transform="matrix(1, 0, 0, 1, 0, -3.552713678800501e-15)"/>
  <path fill="#8E2C3A" d="M 324.401 444.841 C 332.271 445.878 340.795 445.334 348.753 445.337 L 394.673 445.316 C 391.814 458.741 390.693 473.002 384.111 485.438 C 370.414 481.196 354.083 476.041 339.635 475.708 C 334.584 475.005 329.449 474.891 324.353 474.666 L 324.401 444.841 Z" style="" transform="matrix(1, 0, 0, 1, 0, -3.552713678800501e-15)"/>
  <path fill="#8E2C3A" d="M 405.488 445.264 C 418.745 445.363 432.001 445.383 445.259 445.322 C 445.295 465.693 438.477 482.545 427.746 500.095 L 424.181 505.519 C 414.362 500.388 404.839 494.779 394.712 490.163 C 400.649 475.506 404.046 460.874 405.488 445.264 Z" style="" transform="matrix(1, 0, 0, 1, 0, -3.552713678800501e-15)"/>
  <path fill="#8E2C3A" d="M 424.74 376.12 L 425.801 376.421 C 437.912 392.386 444.998 415.287 444.572 434.639 C 435.132 435.165 425.612 434.991 416.156 435.009 L 405.478 435.041 C 403.841 419.272 400.807 405.18 395.582 390.102 C 405.723 385.974 415.255 381.429 424.74 376.12 Z" style="" transform="matrix(1, 0, 0, 1, 0, -3.552713678800501e-15)"/>
  <path fill="#8E2C3A" d="M 348.843 325.943 C 377.133 331.614 400.838 346.483 418.855 367.358 L 408.519 373.236 C 402.911 376.247 397.344 379.073 391.47 381.625 C 379.595 358.673 368.063 343.822 348.843 325.943 Z" style="" transform="matrix(1, 0, 0, 1, 0, -3.552713678800501e-15)"/>
  <path fill="#8E2C3A" d="M 390.722 498.715 C 399.981 502.962 410.168 508.72 418.014 514.932 C 416.464 516.587 414.867 518.203 413.224 519.781 C 411.58 521.357 409.892 522.892 408.161 524.386 C 406.431 525.88 404.658 527.33 402.843 528.737 C 401.03 530.144 399.177 531.505 397.285 532.82 C 395.393 534.135 393.465 535.403 391.501 536.624 C 389.536 537.844 387.538 539.015 385.507 540.136 C 383.476 541.259 381.414 542.33 379.322 543.351 C 377.229 544.371 375.109 545.339 372.961 546.256 C 366.122 549.095 359.157 551.163 351.918 552.937 C 353.925 550.948 355.887 548.921 357.803 546.857 C 359.719 544.792 361.589 542.691 363.411 540.553 C 365.233 538.416 367.006 536.245 368.73 534.04 C 370.455 531.835 372.13 529.597 373.755 527.327 C 375.379 525.057 376.952 522.756 378.473 520.425 C 379.995 518.094 381.463 515.736 382.879 513.349 C 384.295 510.961 385.657 508.547 386.965 506.107 C 388.272 503.667 389.524 501.203 390.722 498.715 Z" style="" transform="matrix(1, 0, 0, 1, 0, -3.552713678800501e-15)"/>
  <path fill="#8E2C3A" d="M 305.222 484.854 C 308.25 484.43 311.605 484.584 314.68 484.487 L 314.678 530.642 C 314.678 538.907 315.111 547.438 314.474 555.67 C 313.568 556.469 313.85 556.588 312.777 556.499 C 305.943 555.926 293.381 542.708 288.41 537.952 C 276.284 524.807 266.85 511.225 258.213 495.891 C 273.592 490.388 288.757 486.383 305.222 484.854 Z" style="" transform="matrix(1, 0, 0, 1, 0, -3.552713678800501e-15)"/>
  <path fill="#8E2C3A" d="M 254.658 393.604 C 274.167 400.441 294.435 403.096 315.208 402.967 L 315.124 435.25 L 305.036 435.245 L 244.404 435.193 C 245.671 420.609 249.591 407.372 254.658 393.604 Z" style="" transform="matrix(1, 0, 0, 1, 0, -3.552713678800501e-15)"/>
  <path fill="#8E2C3A" d="M 313.781 323.417 L 314.336 323.902 C 315.794 329.809 314.684 337.963 314.687 344.115 L 314.713 392.653 C 297.935 392.618 282.119 390.421 265.895 386.648 L 258.731 384.938 C 270.279 362.107 289.983 336.436 313.781 323.417 Z" style="" transform="matrix(1, 0, 0, 1, 0, -3.552713678800501e-15)"/>
  <path fill="#8E2C3A" d="M 244.694 445.266 L 315.111 445.309 C 314.933 454.966 314.897 464.624 315.004 474.282 C 310.883 474.278 306.891 474.594 302.797 475.007 C 286.469 475.096 268.9 480.873 254.142 486.921 C 248.737 473.335 245.095 459.811 244.694 445.266 Z" style="" transform="matrix(1, 0, 0, 1, 0, -3.552713678800501e-15)"/>
  <path fill="#8E2C3A" d="M 215.021 375.871 C 224.398 381.665 234.003 386.588 244.511 390.398 C 238.294 405.268 235.524 419.202 233.539 434.947 L 225.255 435.018 L 195.354 434.969 C 196.825 413.061 202.684 394.625 215.021 375.871 Z" style="" transform="matrix(1, 0, 0, 1, 0, -3.552713678800501e-15)"/>
  <path fill="#8E2C3A" d="M 195.605 445.431 L 233.435 445.292 C 234.105 461.176 237.291 475.915 243.938 490.562 C 240.018 492.31 236.209 494.272 232.379 496.182 C 226.722 498.991 221.632 502.492 216.487 506.019 C 203.09 487.079 197.04 467.93 195.605 445.431 Z" style="" transform="matrix(1, 0, 0, 1, 0, -3.552713678800501e-15)"/>
  <path fill="#8E2C3A" d="M 285.615 327.18 L 287.739 327.217 C 287.552 330.109 275.579 340.416 272.959 343.59 C 263.126 355.503 255.747 368.687 248.335 381.957 C 243.338 379.569 238.475 376.899 233.579 374.338 C 229.649 372.217 225.919 369.734 222.157 367.366 C 239.829 348.14 259.044 333.944 285.615 327.18 Z" style="" transform="matrix(1, 0, 0, 1, 0, -3.552713678800501e-15)"/>
  <path fill="#8E2C3A" d="M 247.501 499.73 C 250.58 501.962 257.92 516.866 261.099 521.377 C 269.336 533.066 279.078 543.541 289.145 553.886 C 282.308 552.194 275.74 550.019 269.179 547.571 C 250.844 539.993 235.31 529.676 222.797 515.027 C 226.639 512.114 230.623 509.38 234.75 506.825 C 238.877 504.269 243.127 501.904 247.501 499.73 Z" style="" transform="matrix(1, 0, 0, 1, 0, -3.552713678800501e-15)"/>
  <path fill="#FEFEFE" d="M 248.519 258.304 C 244.545 256.519 240.795 254.179 237.355 251.618 C 234.311 249.35 230.021 245.858 229.974 241.903 C 229.951 240.003 231.124 238.441 232.445 237.104 C 235.657 233.849 240.219 231.278 244.163 228.857 C 263.133 217.212 285.632 208.304 308.592 207.167 C 312.631 207.36 316.621 207.362 320.663 207.289 C 320.947 214.992 320.531 223.366 321.794 230.951 C 289.633 232.002 273.589 240.655 248.519 258.304 Z" style="" transform="matrix(1, 0, 0, 1, 0, -3.552713678800501e-15)"/>
  <path fill="#DEDEDF" d="M 308.592 207.167 C 338.078 202.548 373.847 215.618 397.469 231.234 C 401.581 233.952 407.808 237.46 409.946 241.862 C 410.057 244.743 408.185 246.703 406.167 248.708 C 402.315 252.536 397.273 256.109 392.313 258.579 C 370.606 242.637 350.25 231.432 321.794 230.951 C 320.531 223.366 320.947 214.992 320.663 207.289 C 316.621 207.362 312.631 207.36 308.592 207.167 Z" style="" transform="matrix(1, 0, 0, 1, 0, -3.552713678800501e-15)"/>
  <path fill="#FEFEFE" d="M 316.365 270.753 C 306.818 271.218 298.273 274.396 289.99 278.6 C 286.697 280.271 283.143 282.424 279.51 283.345 C 277.796 283.78 276.573 283.645 275.077 282.794 C 271.478 280.747 264.054 274.465 263.465 270.519 C 263.108 268.115 264.595 265.748 266.213 264.003 C 277.195 252.172 302.36 245.867 318.51 245.072 L 320.536 245.866 C 321.836 250.048 322.059 265.744 320.765 269.877 L 316.365 270.753 Z" style="" transform="matrix(1, 0, 0, 1, 0, -3.552713678800501e-15)"/>
  <path fill="#DEDEDF" d="M 318.51 245.072 C 335.922 245.421 360.022 251.087 372.68 262.814 C 374.694 264.679 376.283 266.957 376.222 269.687 C 376.149 273.013 373.706 275.816 371.153 277.924 C 368.504 280.109 365.408 282.053 362.351 283.709 C 362.086 283.617 361.82 283.528 361.556 283.433 C 340.664 275.9 342.183 270.541 316.365 270.753 L 320.765 269.877 C 322.059 265.744 321.836 250.048 320.536 245.866 L 318.51 245.072 Z" style="" transform="matrix(1, 0, 0, 1, 0, -3.552713678800501e-15)"/>
  <path fill="#FEFEFE" d="M 218.937 272.84 C 219.267 272.781 219.598 272.73 219.93 272.686 C 220.263 272.642 220.596 272.606 220.93 272.577 C 221.264 272.549 221.599 272.528 221.934 272.514 C 222.27 272.5 222.605 272.494 222.94 272.495 C 223.276 272.496 223.612 272.506 223.947 272.522 C 224.283 272.539 224.617 272.562 224.951 272.594 C 225.285 272.625 225.618 272.665 225.95 272.711 C 226.282 272.757 226.612 272.811 226.941 272.873 C 227.271 272.935 227.599 273.004 227.924 273.08 C 228.25 273.156 228.573 273.239 228.894 273.329 C 229.215 273.42 229.534 273.519 229.85 273.624 C 230.165 273.729 230.479 273.841 230.789 273.96 C 231.099 274.079 231.406 274.205 231.71 274.338 C 232.013 274.471 232.313 274.61 232.609 274.757 C 232.906 274.903 233.198 275.057 233.486 275.216 C 233.774 275.375 234.059 275.541 234.339 275.714 C 234.618 275.886 234.893 276.065 235.162 276.25 C 235.433 276.435 235.699 276.626 235.959 276.823 C 236.219 277.019 236.474 277.221 236.724 277.429 C 236.973 277.638 237.218 277.851 237.456 278.07 C 237.694 278.29 237.927 278.514 238.154 278.744 C 238.381 278.973 238.602 279.208 238.816 279.447 C 239.031 279.687 239.24 279.932 239.441 280.18 C 239.643 280.429 239.838 280.682 240.026 280.94 C 240.215 281.198 240.397 281.46 240.572 281.726 C 240.747 281.992 240.915 282.261 241.076 282.535 C 241.236 282.808 241.389 283.085 241.535 283.366 C 241.682 283.646 241.822 283.93 241.953 284.216 C 242.084 284.503 242.208 284.792 242.324 285.085 C 242.44 285.377 242.549 285.671 242.65 285.968 C 242.751 286.265 242.844 286.564 242.929 286.865 C 243.015 287.167 243.092 287.471 243.162 287.775 C 243.231 288.08 243.293 288.386 243.346 288.693 C 243.4 289.001 243.445 289.309 243.483 289.619 C 243.519 289.929 243.549 290.239 243.57 290.55 C 243.591 290.861 243.604 291.172 243.609 291.483 C 243.614 291.795 243.61 292.106 243.599 292.418 C 243.588 292.729 243.568 293.04 243.54 293.351 C 243.512 293.661 243.477 293.97 243.433 294.28 C 243.389 294.588 243.337 294.896 243.278 295.203 C 243.218 295.509 243.15 295.814 243.073 296.117 C 242.997 296.421 242.914 296.723 242.822 297.022 C 242.731 297.322 242.631 297.619 242.523 297.914 C 242.416 298.209 242.302 298.502 242.18 298.792 C 242.057 299.082 241.927 299.369 241.79 299.653 C 241.652 299.937 241.507 300.218 241.355 300.496 C 241.203 300.774 241.044 301.048 240.877 301.319 C 240.71 301.589 240.537 301.856 240.356 302.118 C 240.176 302.38 239.989 302.639 239.795 302.893 C 239.601 303.148 239.401 303.398 239.193 303.643 C 238.986 303.888 238.773 304.128 238.554 304.364 C 238.334 304.6 238.109 304.83 237.876 305.055 C 237.645 305.281 237.408 305.501 237.165 305.716 C 236.921 305.93 236.672 306.14 236.418 306.344 C 236.164 306.548 235.905 306.745 235.642 306.937 C 235.377 307.129 235.108 307.315 234.833 307.495 C 234.559 307.674 234.28 307.848 233.997 308.016 C 233.714 308.183 233.427 308.344 233.135 308.498 C 232.844 308.652 232.548 308.8 232.249 308.941 C 231.949 309.082 231.647 309.216 231.34 309.343 C 231.034 309.471 230.725 309.591 230.412 309.704 C 230.099 309.818 229.783 309.925 229.466 310.024 C 229.147 310.124 228.827 310.216 228.504 310.3 C 228.181 310.385 227.856 310.463 227.529 310.533 C 227.082 310.629 226.632 310.711 226.179 310.779 C 225.726 310.847 225.272 310.902 224.816 310.942 C 224.359 310.983 223.901 311.009 223.443 311.021 C 222.985 311.033 222.527 311.031 222.068 311.015 C 221.61 310.999 221.152 310.969 220.696 310.925 C 220.24 310.881 219.787 310.823 219.335 310.751 C 218.882 310.679 218.433 310.593 217.988 310.493 C 217.542 310.394 217.1 310.281 216.661 310.154 C 216.224 310.027 215.791 309.887 215.364 309.733 C 214.936 309.58 214.514 309.414 214.099 309.234 C 213.683 309.055 213.274 308.863 212.871 308.658 C 212.469 308.454 212.074 308.237 211.688 308.009 C 211.302 307.78 210.924 307.54 210.554 307.288 C 210.184 307.036 209.824 306.773 209.473 306.498 C 209.122 306.224 208.781 305.94 208.451 305.644 C 208.121 305.349 207.802 305.045 207.493 304.73 C 207.184 304.415 206.886 304.091 206.601 303.758 C 206.316 303.425 206.042 303.083 205.781 302.733 C 205.52 302.384 205.272 302.026 205.036 301.661 C 204.8 301.296 204.578 300.925 204.369 300.546 C 204.16 300.167 203.965 299.782 203.783 299.391 C 203.601 299.001 203.433 298.604 203.28 298.203 C 203.127 297.803 202.988 297.397 202.864 296.987 C 202.739 296.578 202.63 296.165 202.535 295.748 C 202.44 295.332 202.36 294.913 202.295 294.492 C 202.23 294.07 202.181 293.647 202.146 293.224 C 202.111 292.8 202.091 292.375 202.087 291.949 C 202.083 291.524 202.093 291.098 202.118 290.673 C 202.144 290.248 202.186 289.824 202.242 289.402 C 202.298 288.98 202.369 288.56 202.455 288.142 C 202.541 287.724 202.642 287.309 202.758 286.897 C 202.874 286.485 203.004 286.077 203.15 285.674 C 203.295 285.27 203.454 284.871 203.627 284.477 C 203.801 284.083 203.988 283.695 204.189 283.313 C 204.39 282.93 204.604 282.554 204.832 282.185 C 205.06 281.816 205.301 281.454 205.555 281.1 C 205.809 280.745 206.075 280.399 206.353 280.06 C 206.631 279.723 206.922 279.394 207.224 279.073 C 207.526 278.753 207.839 278.443 208.164 278.142 C 208.487 277.84 208.822 277.55 209.167 277.27 C 209.512 276.989 209.867 276.72 210.231 276.46 C 210.595 276.202 210.968 275.955 211.35 275.719 C 211.732 275.483 212.122 275.26 212.52 275.048 C 212.917 274.836 213.322 274.637 213.734 274.451 C 214.146 274.264 214.564 274.089 214.988 273.929 C 215.413 273.768 215.843 273.62 216.278 273.485 C 216.713 273.351 217.152 273.229 217.596 273.122 C 218.04 273.014 218.487 272.92 218.937 272.84 Z" style="" transform="matrix(1, 0, 0, 1, 0, -3.552713678800501e-15)"/>
  <path fill="#DEDEDF" d="M 413.718 273.241 C 414.044 273.193 414.37 273.153 414.697 273.121 C 415.025 273.089 415.353 273.064 415.682 273.046 C 416.011 273.029 416.34 273.019 416.669 273.015 C 416.997 273.013 417.326 273.018 417.655 273.031 C 417.984 273.043 418.313 273.063 418.641 273.091 C 418.969 273.118 419.296 273.153 419.623 273.195 C 419.948 273.237 420.273 273.286 420.596 273.344 C 420.92 273.4 421.242 273.464 421.561 273.536 C 421.881 273.608 422.199 273.687 422.515 273.773 C 422.831 273.859 423.145 273.952 423.456 274.052 C 423.767 274.152 424.075 274.26 424.381 274.375 C 424.686 274.488 424.988 274.61 425.287 274.738 C 425.586 274.866 425.881 275.001 426.173 275.143 C 426.464 275.284 426.752 275.432 427.036 275.587 C 427.32 275.741 427.6 275.902 427.875 276.069 C 428.151 276.236 428.422 276.41 428.688 276.59 C 428.955 276.769 429.216 276.955 429.473 277.147 C 429.729 277.339 429.98 277.536 430.226 277.738 C 430.472 277.942 430.713 278.15 430.948 278.363 C 431.183 278.577 431.412 278.797 431.636 279.021 C 431.86 279.246 432.077 279.475 432.289 279.709 C 432.5 279.943 432.705 280.182 432.903 280.426 C 433.102 280.669 433.294 280.917 433.48 281.17 C 433.666 281.422 433.845 281.678 434.017 281.939 C 434.189 282.199 434.354 282.463 434.512 282.731 C 434.67 282.999 434.821 283.271 434.965 283.545 C 435.109 283.82 435.246 284.098 435.374 284.379 C 435.504 284.66 435.626 284.944 435.74 285.23 C 435.854 285.517 435.961 285.806 436.06 286.097 C 436.158 286.389 436.249 286.683 436.333 286.978 C 436.416 287.274 436.492 287.571 436.56 287.87 C 436.627 288.168 436.686 288.469 436.739 288.771 C 436.791 289.073 436.835 289.376 436.87 289.679 C 436.906 289.983 436.934 290.287 436.954 290.591 C 436.973 290.897 436.984 291.202 436.988 291.507 C 436.992 291.813 436.988 292.119 436.975 292.424 C 436.963 292.729 436.942 293.034 436.913 293.339 C 436.885 293.643 436.848 293.946 436.804 294.248 C 436.759 294.551 436.707 294.853 436.646 295.153 C 436.585 295.454 436.517 295.752 436.441 296.049 C 436.364 296.347 436.28 296.642 436.188 296.935 C 436.096 297.229 435.997 297.52 435.889 297.808 C 435.782 298.097 435.667 298.384 435.544 298.667 C 435.422 298.951 435.293 299.231 435.155 299.509 C 435.018 299.787 434.873 300.061 434.722 300.333 C 434.57 300.604 434.412 300.871 434.245 301.134 C 434.079 301.399 433.906 301.659 433.727 301.915 C 433.548 302.171 433.362 302.422 433.168 302.67 C 432.975 302.918 432.776 303.161 432.571 303.4 C 432.364 303.638 432.152 303.872 431.935 304.101 C 431.716 304.329 431.492 304.553 431.263 304.772 C 431.033 304.991 430.797 305.204 430.556 305.412 C 430.314 305.62 430.068 305.822 429.816 306.018 C 429.565 306.215 429.308 306.406 429.046 306.591 C 428.784 306.776 428.517 306.955 428.246 307.128 C 427.974 307.302 427.698 307.468 427.418 307.628 C 427.138 307.789 426.853 307.943 426.565 308.09 C 426.276 308.238 425.985 308.378 425.689 308.512 C 425.393 308.647 425.094 308.774 424.792 308.895 C 424.489 309.016 424.184 309.129 423.875 309.236 C 423.567 309.342 423.255 309.442 422.942 309.535 C 422.628 309.627 422.312 309.712 421.993 309.79 C 421.676 309.869 421.355 309.94 421.032 310.004 C 420.71 310.067 420.387 310.123 420.063 310.172 C 419.736 310.221 419.409 310.263 419.081 310.297 C 418.753 310.331 418.424 310.357 418.094 310.377 C 417.764 310.396 417.434 310.408 417.103 310.412 C 416.773 310.416 416.444 310.412 416.114 310.401 C 415.783 310.39 415.453 310.371 415.124 310.345 C 414.795 310.319 414.467 310.286 414.14 310.245 C 413.812 310.203 413.486 310.155 413.161 310.099 C 412.836 310.044 412.514 309.98 412.192 309.909 C 411.87 309.839 411.551 309.761 411.234 309.675 C 410.917 309.59 410.602 309.497 410.289 309.398 C 409.977 309.299 409.667 309.192 409.36 309.078 C 409.053 308.964 408.75 308.844 408.45 308.716 C 408.15 308.588 407.853 308.454 407.56 308.313 C 407.266 308.171 406.977 308.024 406.692 307.869 C 406.406 307.715 406.125 307.554 405.848 307.387 C 405.572 307.22 405.299 307.047 405.031 306.868 C 404.763 306.687 404.5 306.502 404.243 306.31 C 403.985 306.119 403.732 305.922 403.484 305.718 C 403.237 305.515 402.996 305.307 402.76 305.092 C 402.523 304.878 402.293 304.659 402.068 304.434 C 401.843 304.21 401.624 303.98 401.411 303.745 C 401.199 303.511 400.993 303.271 400.793 303.027 C 400.593 302.783 400.4 302.534 400.213 302.282 C 400.027 302.029 399.847 301.772 399.674 301.51 C 399.501 301.249 399.335 300.984 399.175 300.715 C 399.016 300.447 398.864 300.175 398.72 299.899 C 398.575 299.624 398.438 299.345 398.309 299.063 C 398.179 298.781 398.057 298.497 397.942 298.209 C 397.827 297.922 397.72 297.632 397.621 297.339 C 397.521 297.047 397.43 296.753 397.345 296.456 C 397.262 296.16 397.186 295.862 397.118 295.561 C 397.05 295.262 396.99 294.961 396.938 294.658 C 396.886 294.355 396.842 294.051 396.806 293.747 C 396.77 293.442 396.743 293.136 396.723 292.831 C 396.703 292.525 396.691 292.219 396.687 291.912 C 396.684 291.605 396.689 291.298 396.702 290.992 C 396.715 290.686 396.736 290.381 396.764 290.075 C 396.793 289.77 396.83 289.466 396.875 289.162 C 396.921 288.858 396.974 288.555 397.035 288.254 C 397.095 287.952 397.165 287.653 397.242 287.355 C 397.319 287.057 397.403 286.761 397.497 286.467 C 397.59 286.172 397.69 285.88 397.798 285.591 C 397.906 285.301 398.022 285.014 398.145 284.73 C 398.269 284.446 398.4 284.164 398.538 283.886 C 398.677 283.607 398.822 283.332 398.974 283.061 C 399.127 282.789 399.288 282.521 399.455 282.256 C 399.622 281.992 399.796 281.731 399.977 281.475 C 400.158 281.218 400.345 280.966 400.539 280.718 C 400.733 280.47 400.934 280.227 401.141 279.988 C 401.348 279.749 401.562 279.516 401.782 279.286 C 402.001 279.058 402.227 278.834 402.458 278.615 C 402.69 278.396 402.927 278.183 403.17 277.975 C 403.412 277.767 403.66 277.565 403.914 277.368 C 404.167 277.171 404.426 276.981 404.689 276.796 C 404.953 276.611 405.221 276.433 405.493 276.261 C 405.767 276.088 406.044 275.921 406.326 275.761 C 406.608 275.602 406.894 275.448 407.184 275.301 C 407.474 275.154 407.767 275.014 408.065 274.881 C 408.362 274.748 408.663 274.621 408.967 274.501 C 409.271 274.381 409.579 274.268 409.888 274.163 C 410.198 274.057 410.511 273.958 410.826 273.867 C 411.142 273.776 411.459 273.691 411.779 273.614 C 412.099 273.537 412.42 273.468 412.743 273.406 C 413.067 273.343 413.392 273.288 413.718 273.241 Z" style="" transform="matrix(1, 0, 0, 1, 0, -3.552713678800501e-15)"/>
</svg>